<svg xmlns="http://www.w3.org/2000/svg" width="34" height="34" viewBox="0 0 34 34">
    <g fill="none" fill-rule="evenodd" transform="translate(1 1)">
        <g>
            <path fill="#FA3F3F" d="M15.303 2.258c.276 0 .5.223.5.5 0 .276-.224.5-.5.5l-1.108-.001-.927 11.129c-.067.8-.736 1.417-1.54 1.417H4.243c-.804 0-1.474-.616-1.54-1.417l-.93-11.13-1.106.002c-.246 0-.45-.177-.492-.41l-.008-.09c0-.277.224-.5.5-.5l4.204-.001v-.545c0-.806.617-1.468 1.405-1.539l.14-.006h3.137c.854 0 1.545.692 1.545 1.545v.545zm-2.112 1H2.778L3.7 14.303c.024.282.26.5.544.5h7.485c.283 0 .52-.218.543-.5l.92-11.045zM6.417 5.917c.276 0 .5.224.5.5v5.227c0 .276-.224.5-.5.5s-.5-.224-.5-.5V6.417c0-.276.224-.5.5-.5zm3.136 0c.276 0 .5.224.5.5v5.227c0 .276-.224.5-.5.5s-.5-.224-.5-.5V6.417c0-.276.224-.5.5-.5zm0-4.75H6.417c-.302 0-.546.244-.546.545v.546h4.227v-.546c0-.301-.244-.545-.545-.545z" transform="translate(8 8)"/>
        </g>
    </g>
</svg>
